<mxfile host="Electron" agent="Mozilla/5.0 (Windows NT 10.0; Win64; x64) AppleWebKit/537.36 (KHTML, like Gecko) draw.io/24.7.17 Chrome/128.0.6613.36 Electron/32.0.1 Safari/537.36" version="24.7.17">
  <diagram name="第 1 页" id="CYBKMbkKCNL093wi5okR">
    <mxGraphModel dx="2261" dy="-1381" grid="1" gridSize="1" guides="1" tooltips="1" connect="1" arrows="1" fold="1" page="1" pageScale="1" pageWidth="827" pageHeight="1169" math="0" shadow="0">
      <root>
        <mxCell id="0" />
        <mxCell id="1" parent="0" />
        <mxCell id="mZRepZd787s2b-J5aElP-34" value="" style="rounded=0;whiteSpace=wrap;html=1;fillColor=#b0e3e6;strokeColor=#0e8088;fontStyle=1;fontSize=17;fillOpacity=100;strokeOpacity=100;resizeWidth=1;resizeHeight=1;verticalAlign=bottom;strokeWidth=7;align=center;" parent="1" vertex="1">
          <mxGeometry x="270" y="3531" width="250" height="300" as="geometry" />
        </mxCell>
        <mxCell id="mZRepZd787s2b-J5aElP-62" value="" style="rounded=0;whiteSpace=wrap;html=1;fillColor=#b0e3e6;strokeColor=#0e8088;fontStyle=1;fontSize=17;fillOpacity=100;strokeOpacity=100;resizeWidth=1;resizeHeight=1;verticalAlign=bottom;strokeWidth=7;align=right;" parent="1" vertex="1">
          <mxGeometry x="14" y="3531" width="250" height="300" as="geometry" />
        </mxCell>
        <mxCell id="mZRepZd787s2b-J5aElP-63" value="床" style="rounded=0;whiteSpace=wrap;html=1;fillColor=#cdeb8b;strokeColor=#36393d;" parent="1" vertex="1">
          <mxGeometry x="19" y="3537" width="150" height="190" as="geometry" />
        </mxCell>
        <mxCell id="mZRepZd787s2b-J5aElP-64" value="办公桌" style="rounded=0;whiteSpace=wrap;html=1;fillColor=#cdeb8b;strokeColor=#36393d;" parent="1" vertex="1">
          <mxGeometry x="199" y="3537" width="60" height="140" as="geometry" />
        </mxCell>
        <mxCell id="mZRepZd787s2b-J5aElP-66" value="衣柜" style="rounded=0;whiteSpace=wrap;html=1;fillColor=#e3c800;strokeColor=#B09500;fontColor=#000000;" parent="1" vertex="1">
          <mxGeometry x="42" y="3747" width="116" height="80" as="geometry" />
        </mxCell>
        <mxCell id="mZRepZd787s2b-J5aElP-67" value="门" style="rounded=0;whiteSpace=wrap;html=1;fillColor=#d80073;fontColor=#ffffff;strokeColor=#A50040;" parent="1" vertex="1">
          <mxGeometry x="256" y="3737" width="18.5" height="90" as="geometry" />
        </mxCell>
        <mxCell id="mZRepZd787s2b-J5aElP-69" value="" style="rounded=0;whiteSpace=wrap;html=1;fillColor=#b0e3e6;strokeColor=#0e8088;fontStyle=1;fontSize=17;fillOpacity=100;strokeOpacity=100;resizeWidth=1;resizeHeight=1;verticalAlign=bottom;strokeWidth=7;align=center;" parent="1" vertex="1">
          <mxGeometry x="13.5" y="3837" width="250" height="150" as="geometry" />
        </mxCell>
        <mxCell id="mZRepZd787s2b-J5aElP-70" value="" style="rounded=0;whiteSpace=wrap;html=1;fillColor=#b0e3e6;strokeColor=#0e8088;fontStyle=1;fontSize=17;fillOpacity=100;strokeOpacity=100;resizeWidth=1;resizeHeight=1;verticalAlign=bottom;strokeWidth=7;align=center;" parent="1" vertex="1">
          <mxGeometry x="270" y="3837" width="250" height="150" as="geometry" />
        </mxCell>
        <mxCell id="mZRepZd787s2b-J5aElP-71" value="门" style="rounded=0;whiteSpace=wrap;html=1;fillColor=#d80073;fontColor=#ffffff;strokeColor=#A50040;" parent="1" vertex="1">
          <mxGeometry x="256.75" y="3842" width="18.5" height="90" as="geometry" />
        </mxCell>
        <mxCell id="mZRepZd787s2b-J5aElP-47" value="浴室" style="rounded=0;whiteSpace=wrap;html=1;fillColor=#b0e3e6;strokeColor=#0e8088;" parent="1" vertex="1">
          <mxGeometry x="15.5" y="3840.5" width="102" height="143" as="geometry" />
        </mxCell>
        <mxCell id="mZRepZd787s2b-J5aElP-50" value="洗衣机" style="rounded=0;whiteSpace=wrap;html=1;fillColor=#cdeb8b;strokeColor=#36393d;" parent="1" vertex="1">
          <mxGeometry x="275.25" y="3937" width="59.5" height="44" as="geometry" />
        </mxCell>
        <mxCell id="mZRepZd787s2b-J5aElP-72" value="门" style="rounded=0;whiteSpace=wrap;html=1;fillColor=#d80073;fontColor=#ffffff;strokeColor=#A50040;" parent="1" vertex="1">
          <mxGeometry x="108.5" y="3842" width="12" height="140" as="geometry" />
        </mxCell>
        <mxCell id="mZRepZd787s2b-J5aElP-73" value="马桶" style="rounded=0;whiteSpace=wrap;html=1;fillColor=#e3c800;fontColor=#000000;strokeColor=#B09500;" parent="1" vertex="1">
          <mxGeometry x="132.5" y="3943" width="40" height="40" as="geometry" />
        </mxCell>
        <mxCell id="mZRepZd787s2b-J5aElP-74" value="洗手台" style="rounded=0;whiteSpace=wrap;html=1;fillColor=#e3c800;fontColor=#000000;strokeColor=#B09500;" parent="1" vertex="1">
          <mxGeometry x="188.5" y="3942" width="70.5" height="40" as="geometry" />
        </mxCell>
        <mxCell id="mZRepZd787s2b-J5aElP-76" value="冰箱" style="rounded=0;whiteSpace=wrap;html=1;fillColor=#cdeb8b;strokeColor=#36393d;" parent="1" vertex="1">
          <mxGeometry x="459.5" y="3772" width="55" height="55" as="geometry" />
        </mxCell>
        <mxCell id="mZRepZd787s2b-J5aElP-77" value="拉门" style="rounded=0;whiteSpace=wrap;html=1;fillColor=#d80073;fontColor=#ffffff;strokeColor=#A50040;" parent="1" vertex="1">
          <mxGeometry x="277.5" y="3828" width="183" height="12" as="geometry" />
        </mxCell>
        <mxCell id="mZRepZd787s2b-J5aElP-79" value="厨房台面" style="rounded=0;whiteSpace=wrap;html=1;fillColor=#e3c800;fontColor=#000000;strokeColor=#B09500;" parent="1" vertex="1">
          <mxGeometry x="461.5" y="3840" width="55" height="142" as="geometry" />
        </mxCell>
        <mxCell id="mZRepZd787s2b-J5aElP-80" value="杂物柜" style="rounded=0;whiteSpace=wrap;html=1;fillColor=#cdeb8b;strokeColor=#36393d;" parent="1" vertex="1">
          <mxGeometry x="481.5" y="3732" width="33" height="39" as="geometry" />
        </mxCell>
        <mxCell id="mZRepZd787s2b-J5aElP-81" value="电视柜" style="rounded=0;whiteSpace=wrap;html=1;fillColor=#cdeb8b;strokeColor=#36393d;" parent="1" vertex="1">
          <mxGeometry x="481" y="3603" width="34" height="128" as="geometry" />
        </mxCell>
        <mxCell id="mZRepZd787s2b-J5aElP-83" value="" style="rounded=0;whiteSpace=wrap;html=1;fillColor=#b0e3e6;strokeColor=#0e8088;fontStyle=1;fontSize=17;fillOpacity=100;strokeOpacity=100;resizeWidth=1;resizeHeight=1;verticalAlign=bottom;strokeWidth=7;align=center;" parent="1" vertex="1">
          <mxGeometry x="400" y="3306" width="120" height="223" as="geometry" />
        </mxCell>
        <mxCell id="mZRepZd787s2b-J5aElP-84" value="鞋柜" style="rounded=0;whiteSpace=wrap;html=1;fillColor=#e3c800;fontColor=#000000;strokeColor=#B09500;" parent="1" vertex="1">
          <mxGeometry x="491" y="3390" width="24.5" height="95" as="geometry" />
        </mxCell>
        <mxCell id="mZRepZd787s2b-J5aElP-86" value="门" style="rounded=0;whiteSpace=wrap;html=1;fillColor=#d80073;fontColor=#ffffff;strokeColor=#A50040;" parent="1" vertex="1">
          <mxGeometry x="412" y="3297" width="100.5" height="13" as="geometry" />
        </mxCell>
        <mxCell id="mZRepZd787s2b-J5aElP-88" value="窗台" style="rounded=0;whiteSpace=wrap;html=1;fillColor=#b0e3e6;strokeColor=#0e8088;fontStyle=1;fontSize=17;fillOpacity=100;strokeOpacity=100;resizeWidth=1;resizeHeight=1;verticalAlign=bottom;strokeWidth=7;align=center;" parent="1" vertex="1">
          <mxGeometry x="337" y="3989" width="120" height="48" as="geometry" />
        </mxCell>
        <mxCell id="mZRepZd787s2b-J5aElP-89" value="飘窗" style="rounded=0;whiteSpace=wrap;html=1;fillColor=#b0e3e6;strokeColor=#0e8088;fontStyle=1;fontSize=17;fillOpacity=100;strokeOpacity=100;resizeWidth=1;resizeHeight=1;verticalAlign=bottom;strokeWidth=7;align=center;" parent="1" vertex="1">
          <mxGeometry x="-43" y="3586" width="55" height="159" as="geometry" />
        </mxCell>
        <mxCell id="mZRepZd787s2b-J5aElP-90" value="沙发" style="rounded=0;whiteSpace=wrap;html=1;fillColor=#cdeb8b;strokeColor=#36393d;" parent="1" vertex="1">
          <mxGeometry x="274" y="3536" width="70" height="150" as="geometry" />
        </mxCell>
        <mxCell id="mZRepZd787s2b-J5aElP-91" value="餐桌" style="rounded=0;whiteSpace=wrap;html=1;fillColor=#cdeb8b;strokeColor=#36393d;" parent="1" vertex="1">
          <mxGeometry x="274" y="3687" width="70" height="40" as="geometry" />
        </mxCell>
        <mxCell id="mZRepZd787s2b-J5aElP-93" value="" style="rounded=0;whiteSpace=wrap;html=1;fillColor=#b0e3e6;strokeColor=#0e8088;fontStyle=1;fontSize=17;fillOpacity=100;strokeOpacity=100;resizeWidth=1;resizeHeight=1;verticalAlign=bottom;strokeWidth=7;align=center;" parent="1" vertex="1">
          <mxGeometry x="276" y="4393" width="205" height="300" as="geometry" />
        </mxCell>
        <mxCell id="mZRepZd787s2b-J5aElP-94" value="" style="rounded=0;whiteSpace=wrap;html=1;fillColor=#b0e3e6;strokeColor=#0e8088;fontStyle=1;fontSize=17;fillOpacity=100;strokeOpacity=100;resizeWidth=1;resizeHeight=1;verticalAlign=bottom;strokeWidth=7;align=right;" parent="1" vertex="1">
          <mxGeometry y="4393" width="270" height="300" as="geometry" />
        </mxCell>
        <mxCell id="mZRepZd787s2b-J5aElP-127" value="地毯" style="rounded=0;whiteSpace=wrap;html=1;fillColor=#919191;strokeColor=#36393d;fontStyle=1;fontSize=16;fillStyle=zigzag-line;gradientColor=none;" parent="1" vertex="1">
          <mxGeometry x="152" y="4417" width="120" height="180" as="geometry" />
        </mxCell>
        <mxCell id="mZRepZd787s2b-J5aElP-95" value="床" style="rounded=0;whiteSpace=wrap;html=1;fillColor=#cdeb8b;strokeColor=#36393d;fontStyle=1;fontSize=16;" parent="1" vertex="1">
          <mxGeometry x="4" y="4398" width="150" height="200" as="geometry" />
        </mxCell>
        <mxCell id="mZRepZd787s2b-J5aElP-96" value="电脑桌" style="rounded=0;whiteSpace=wrap;html=1;fillColor=#cdeb8b;strokeColor=#36393d;fontStyle=1;fontSize=16;" parent="1" vertex="1">
          <mxGeometry x="208" y="4397" width="60" height="140" as="geometry" />
        </mxCell>
        <mxCell id="mZRepZd787s2b-J5aElP-97" value="衣柜" style="rounded=0;whiteSpace=wrap;html=1;fillColor=#e3c800;strokeColor=#B09500;fontColor=#000000;fontStyle=1;fontSize=16;" parent="1" vertex="1">
          <mxGeometry x="25" y="4620" width="116" height="69" as="geometry" />
        </mxCell>
        <mxCell id="mZRepZd787s2b-J5aElP-144" style="edgeStyle=orthogonalEdgeStyle;rounded=0;orthogonalLoop=1;jettySize=auto;html=1;exitX=0;exitY=0.5;exitDx=0;exitDy=0;entryX=0.75;entryY=1;entryDx=0;entryDy=0;curved=1;" parent="1" source="mZRepZd787s2b-J5aElP-98" target="mZRepZd787s2b-J5aElP-94" edge="1">
          <mxGeometry relative="1" as="geometry">
            <Array as="points">
              <mxPoint x="208" y="4635" />
            </Array>
          </mxGeometry>
        </mxCell>
        <mxCell id="mZRepZd787s2b-J5aElP-98" value="门" style="rounded=0;whiteSpace=wrap;html=1;fillColor=#d80073;fontColor=#ffffff;strokeColor=#A50040;" parent="1" vertex="1">
          <mxGeometry x="263" y="4597" width="18.5" height="80" as="geometry" />
        </mxCell>
        <mxCell id="mZRepZd787s2b-J5aElP-99" value="" style="rounded=0;whiteSpace=wrap;html=1;fillColor=#b0e3e6;strokeColor=#0e8088;fontStyle=1;fontSize=17;fillOpacity=100;strokeOpacity=100;resizeWidth=1;resizeHeight=1;verticalAlign=bottom;strokeWidth=7;align=center;" parent="1" vertex="1">
          <mxGeometry y="4699" width="220" height="150" as="geometry" />
        </mxCell>
        <mxCell id="mZRepZd787s2b-J5aElP-100" value="" style="rounded=0;whiteSpace=wrap;html=1;fillColor=#b0e3e6;strokeColor=#0e8088;fontStyle=1;fontSize=17;fillOpacity=100;strokeOpacity=100;resizeWidth=1;resizeHeight=1;verticalAlign=bottom;strokeWidth=7;align=center;" parent="1" vertex="1">
          <mxGeometry x="226" y="4699" width="256" height="150" as="geometry" />
        </mxCell>
        <mxCell id="mZRepZd787s2b-J5aElP-143" style="edgeStyle=orthogonalEdgeStyle;rounded=0;orthogonalLoop=1;jettySize=auto;html=1;exitX=0;exitY=0.5;exitDx=0;exitDy=0;entryX=0.75;entryY=0;entryDx=0;entryDy=0;elbow=vertical;curved=1;" parent="1" source="mZRepZd787s2b-J5aElP-101" target="mZRepZd787s2b-J5aElP-99" edge="1">
          <mxGeometry relative="1" as="geometry">
            <Array as="points">
              <mxPoint x="207" y="4755" />
            </Array>
          </mxGeometry>
        </mxCell>
        <mxCell id="mZRepZd787s2b-J5aElP-101" value="门" style="rounded=0;whiteSpace=wrap;html=1;fillColor=#d80073;fontColor=#ffffff;strokeColor=#A50040;" parent="1" vertex="1">
          <mxGeometry x="214.5" y="4702" width="18.5" height="90" as="geometry" />
        </mxCell>
        <mxCell id="mZRepZd787s2b-J5aElP-103" value="洗衣机" style="rounded=0;whiteSpace=wrap;html=1;fillColor=#cdeb8b;strokeColor=#36393d;fontStyle=1;fontSize=16;" parent="1" vertex="1">
          <mxGeometry x="231.13" y="4802" width="59.5" height="44" as="geometry" />
        </mxCell>
        <mxCell id="mZRepZd787s2b-J5aElP-104" value="玻璃门" style="rounded=0;whiteSpace=wrap;html=1;fillColor=#d80073;fontColor=#ffffff;strokeColor=#A50040;" parent="1" vertex="1">
          <mxGeometry x="78" y="4705" width="12" height="140" as="geometry" />
        </mxCell>
        <mxCell id="mZRepZd787s2b-J5aElP-126" value="地毯" style="rounded=0;whiteSpace=wrap;html=1;fillColor=#919191;strokeColor=#36393d;fontStyle=1;fontSize=16;fillStyle=zigzag-line;gradientColor=none;" parent="1" vertex="1">
          <mxGeometry x="280.5" y="4395" width="200.5" height="293" as="geometry" />
        </mxCell>
        <mxCell id="mZRepZd787s2b-J5aElP-105" value="马桶" style="rounded=0;whiteSpace=wrap;html=1;fillColor=#e3c800;fontColor=#000000;strokeColor=#B09500;fontStyle=1;fontSize=16;" parent="1" vertex="1">
          <mxGeometry x="103" y="4806" width="40" height="40" as="geometry" />
        </mxCell>
        <mxCell id="mZRepZd787s2b-J5aElP-106" value="洗手台" style="rounded=0;whiteSpace=wrap;html=1;fillColor=#e3c800;fontColor=#000000;strokeColor=#B09500;fontStyle=1;fontSize=16;" parent="1" vertex="1">
          <mxGeometry x="156" y="4805" width="60" height="40" as="geometry" />
        </mxCell>
        <mxCell id="mZRepZd787s2b-J5aElP-107" value="冰箱" style="rounded=0;whiteSpace=wrap;html=1;fillColor=#cdeb8b;strokeColor=#36393d;fontStyle=1;fontSize=16;" parent="1" vertex="1">
          <mxGeometry x="423" y="4631" width="55" height="55" as="geometry" />
        </mxCell>
        <mxCell id="mZRepZd787s2b-J5aElP-108" value="拉门" style="rounded=0;whiteSpace=wrap;html=1;fillColor=#d80073;fontColor=#ffffff;strokeColor=#A50040;" parent="1" vertex="1">
          <mxGeometry x="283.5" y="4690" width="135.5" height="12" as="geometry" />
        </mxCell>
        <mxCell id="mZRepZd787s2b-J5aElP-109" value="厨房台面" style="rounded=0;whiteSpace=wrap;html=1;fillColor=#e3c800;fontColor=#000000;strokeColor=#B09500;fontStyle=1;fontSize=16;" parent="1" vertex="1">
          <mxGeometry x="423" y="4704" width="55" height="141" as="geometry" />
        </mxCell>
        <mxCell id="mZRepZd787s2b-J5aElP-110" value="杂物柜" style="rounded=0;whiteSpace=wrap;html=1;fillColor=#cdeb8b;strokeColor=#36393d;fontStyle=1;fontSize=14;rotation=-180;" parent="1" vertex="1">
          <mxGeometry x="441.75" y="4586" width="33" height="45" as="geometry" />
        </mxCell>
        <mxCell id="mZRepZd787s2b-J5aElP-112" value="" style="rounded=0;whiteSpace=wrap;html=1;fillColor=#b0e3e6;strokeColor=#0e8088;fontStyle=1;fontSize=17;fillOpacity=100;strokeOpacity=100;resizeWidth=1;resizeHeight=1;verticalAlign=bottom;strokeWidth=7;align=center;" parent="1" vertex="1">
          <mxGeometry x="390" y="4168" width="90" height="223" as="geometry" />
        </mxCell>
        <mxCell id="mZRepZd787s2b-J5aElP-113" value="鞋柜" style="rounded=0;whiteSpace=wrap;html=1;fillColor=#e3c800;fontColor=#000000;strokeColor=#B09500;fontStyle=1;fontSize=15;" parent="1" vertex="1">
          <mxGeometry x="452" y="4245" width="24.5" height="95" as="geometry" />
        </mxCell>
        <mxCell id="mZRepZd787s2b-J5aElP-114" value="门" style="rounded=0;whiteSpace=wrap;html=1;fillColor=#d80073;fontColor=#ffffff;strokeColor=#A50040;" parent="1" vertex="1">
          <mxGeometry x="391" y="4159" width="90" height="13" as="geometry" />
        </mxCell>
        <mxCell id="mZRepZd787s2b-J5aElP-115" value="窗台" style="rounded=0;whiteSpace=wrap;html=1;fillColor=#b0e3e6;strokeColor=#0e8088;fontStyle=1;fontSize=17;fillOpacity=100;strokeOpacity=100;resizeWidth=1;resizeHeight=1;verticalAlign=bottom;strokeWidth=7;align=center;" parent="1" vertex="1">
          <mxGeometry x="288" y="4849" width="120" height="48" as="geometry" />
        </mxCell>
        <mxCell id="mZRepZd787s2b-J5aElP-116" value="飘窗" style="rounded=0;whiteSpace=wrap;html=1;fillColor=#b0e3e6;strokeColor=#0e8088;fontStyle=1;fontSize=17;fillOpacity=100;strokeOpacity=100;resizeWidth=1;resizeHeight=1;verticalAlign=bottom;strokeWidth=7;align=center;" parent="1" vertex="1">
          <mxGeometry x="-44" y="4422" width="43" height="150" as="geometry" />
        </mxCell>
        <mxCell id="mZRepZd787s2b-J5aElP-124" value="桌子" style="rounded=0;whiteSpace=wrap;html=1;fillColor=#cdeb8b;strokeColor=#36393d;fontStyle=1;fontSize=16;" parent="1" vertex="1">
          <mxGeometry x="319" y="4794" width="80" height="50" as="geometry" />
        </mxCell>
        <mxCell id="mZRepZd787s2b-J5aElP-129" value="" style="group;rotation=-90;fontStyle=0;horizontal=1;verticalAlign=bottom;textDirection=ltr;labelPosition=left;verticalLabelPosition=top;align=right;" parent="1" vertex="1" connectable="0">
          <mxGeometry x="305" y="4515" width="120" height="85.33" as="geometry" />
        </mxCell>
        <mxCell id="d14SrWLnWhH9Ct6czbAq-93" value="地桌" style="rounded=0;whiteSpace=wrap;html=1;fillColor=#cdeb8b;strokeColor=#36393d;rotation=-90;fontStyle=1;fontSize=16;verticalAlign=middle;horizontal=1;" parent="mZRepZd787s2b-J5aElP-129" vertex="1">
          <mxGeometry width="120" height="60" as="geometry" />
        </mxCell>
        <mxCell id="mZRepZd787s2b-J5aElP-133" value="沙发" style="rounded=0;whiteSpace=wrap;html=1;fillColor=#cdeb8b;strokeColor=#36393d;fontStyle=1;fontSize=17;rotation=-90;" parent="1" vertex="1">
          <mxGeometry x="316" y="4387" width="40" height="103" as="geometry" />
        </mxCell>
        <mxCell id="mZRepZd787s2b-J5aElP-134" value="风扇" style="ellipse;whiteSpace=wrap;html=1;aspect=fixed;dashed=1;fillColor=#ffff88;strokeColor=#36393d;" parent="1" vertex="1">
          <mxGeometry x="281.83000000000004" y="4396" width="39.33333333333333" height="39.33333333333333" as="geometry" />
        </mxCell>
        <mxCell id="mZRepZd787s2b-J5aElP-135" value="空气净化" style="rounded=0;whiteSpace=wrap;html=1;fillColor=#cdeb8b;strokeColor=#36393d;fontStyle=1;fontSize=14;" parent="1" vertex="1">
          <mxGeometry x="443.50000000000006" y="4447.5" width="33" height="39" as="geometry" />
        </mxCell>
        <mxCell id="mZRepZd787s2b-J5aElP-138" value="架子" style="rounded=0;whiteSpace=wrap;html=1;fillColor=#cdeb8b;strokeColor=#36393d;fontStyle=1;fontSize=16;" parent="1" vertex="1">
          <mxGeometry x="292.88" y="4805" width="24" height="40" as="geometry" />
        </mxCell>
        <mxCell id="mZRepZd787s2b-J5aElP-139" value="垃圾" style="ellipse;whiteSpace=wrap;html=1;aspect=fixed;dashed=1;fillColor=#ffff88;strokeColor=#36393d;" parent="1" vertex="1">
          <mxGeometry x="360.88" y="4779" width="25" height="25" as="geometry" />
        </mxCell>
        <mxCell id="mZRepZd787s2b-J5aElP-145" style="edgeStyle=orthogonalEdgeStyle;rounded=0;orthogonalLoop=1;jettySize=auto;html=1;exitX=0.5;exitY=1;exitDx=0;exitDy=0;entryX=0.008;entryY=0.229;entryDx=0;entryDy=0;entryPerimeter=0;curved=1;" parent="1" source="mZRepZd787s2b-J5aElP-114" target="mZRepZd787s2b-J5aElP-112" edge="1">
          <mxGeometry relative="1" as="geometry">
            <Array as="points">
              <mxPoint x="422" y="4219" />
            </Array>
          </mxGeometry>
        </mxCell>
        <mxCell id="mZRepZd787s2b-J5aElP-147" value="玄关" style="text;html=1;align=center;verticalAlign=middle;resizable=0;points=[];autosize=1;strokeColor=none;fillColor=none;fontSize=27;fontStyle=1" parent="1" vertex="1">
          <mxGeometry x="291" y="4224" width="73" height="45" as="geometry" />
        </mxCell>
        <mxCell id="mZRepZd787s2b-J5aElP-148" value="卧室" style="text;html=1;align=center;verticalAlign=middle;resizable=0;points=[];autosize=1;strokeColor=none;fillColor=none;fontSize=27;fontStyle=1" parent="1" vertex="1">
          <mxGeometry x="102" y="4351" width="73" height="45" as="geometry" />
        </mxCell>
        <mxCell id="mZRepZd787s2b-J5aElP-149" value="客厅" style="text;html=1;align=center;verticalAlign=middle;resizable=0;points=[];autosize=1;strokeColor=none;fillColor=none;fontSize=27;fontStyle=1" parent="1" vertex="1">
          <mxGeometry x="265" y="4349" width="73" height="45" as="geometry" />
        </mxCell>
        <mxCell id="mZRepZd787s2b-J5aElP-150" value="厨房" style="text;html=1;align=center;verticalAlign=middle;resizable=0;points=[];autosize=1;strokeColor=none;fillColor=none;fontSize=27;fontStyle=1" parent="1" vertex="1">
          <mxGeometry x="457" y="4851" width="73" height="45" as="geometry" />
        </mxCell>
        <mxCell id="mZRepZd787s2b-J5aElP-151" value="卫生间" style="text;html=1;align=center;verticalAlign=middle;resizable=0;points=[];autosize=1;strokeColor=none;fillColor=none;fontSize=27;fontStyle=1" parent="1" vertex="1">
          <mxGeometry x="127" y="4848" width="100" height="45" as="geometry" />
        </mxCell>
        <mxCell id="mZRepZd787s2b-J5aElP-152" value="浴室" style="text;html=1;align=center;verticalAlign=middle;resizable=0;points=[];autosize=1;strokeColor=none;fillColor=none;fontSize=27;fontStyle=1" parent="1" vertex="1">
          <mxGeometry x="33" y="4848" width="73" height="45" as="geometry" />
        </mxCell>
        <mxCell id="mZRepZd787s2b-J5aElP-111" value="电视柜" style="rounded=0;whiteSpace=wrap;html=1;fillColor=#cdeb8b;strokeColor=#36393d;fontStyle=1;fontSize=16;" parent="1" vertex="1">
          <mxGeometry x="440.75" y="4487" width="34" height="100" as="geometry" />
        </mxCell>
        <mxCell id="mZRepZd787s2b-J5aElP-121" value="垫" style="ellipse;whiteSpace=wrap;html=1;aspect=fixed;dashed=1;fillColor=#ffff88;strokeColor=#36393d;rotation=0;" parent="1" vertex="1">
          <mxGeometry x="286" y="4525" width="39.33333333333333" height="39.33333333333333" as="geometry" />
        </mxCell>
        <mxCell id="mZRepZd787s2b-J5aElP-122" value="垫" style="ellipse;whiteSpace=wrap;html=1;aspect=fixed;dashed=1;fillColor=#ffff88;strokeColor=#36393d;rotation=0;" parent="1" vertex="1">
          <mxGeometry x="398" y="4530" width="39.33" height="39.33" as="geometry" />
        </mxCell>
      </root>
    </mxGraphModel>
  </diagram>
</mxfile>
